<svg xmlns="http://www.w3.org/2000/svg" viewBox="0 0 512 512">
  <defs>
    <linearGradient id="bg" x1="0" y1="0" x2="1" y2="1">
      <stop offset="0%" stop-color="#194F55"/>
      <stop offset="100%" stop-color="#0F3E44"/>
    </linearGradient>
  </defs>

  <!-- App icon background -->
  <rect x="36" y="36" width="440" height="440" rx="105" fill="url(#bg)"/>

  <!-- Wallet body -->
  <path d="M137 164h213c25 0 45 20 45 45v139c0 25-20 45-45 45H137c-25 0-45-20-45-45V209c0-25 20-45 45-45z"
        fill="#FFFFFF"/>

  <!-- Wallet flap -->
  <path d="M107 196c10-30 36-50 68-50h137c18 0 33 15 33 33v28H141c-14 0-26-4-34-11z"
        fill="#F7F7F7"/>

  <!-- Green money/card accent -->
  <path d="M150 148h135c12 0 23 7 28 18l12 27H150c-18 0-32-10-32-23s14-22 32-22z"
        fill="#C3F44A"/>

  <!-- Wallet pocket -->
  <path d="M291 258h82c13 0 23 10 23 23v39c0 13-10 23-23 23h-82c-13 0-23-10-23-23v-39c0-13 10-23 23-23z"
        fill="#F4F4F4"/>

  <!-- Wallet clasp -->
  <circle cx="318" cy="300" r="10" fill="#1A5157"/>
  <circle cx="318" cy="300" r="4" fill="#FFFFFF"/>
</svg>